<svg xmlns="http://www.w3.org/2000/svg" width="121.5" height="139" viewBox="0 0 121.5 139"><style type="text/css">.st0{display:none;} .st1{display:inline;fill:#F17430;} .st2{display:inline;fill:#FEDF3A;} .st3{display:inline;fill:none;stroke:#F17430;stroke-width:4;stroke-miterlimit:10;} .st4{display:inline;fill:#FFFFFF;} .st5{display:inline;} .st6{fill:#F17430;} .st7{fill:#FFFFFF;} .st8{fill:#FEDF3A;} .st9{display:inline;fill:#FFFFFF;stroke:#FFFFFF;stroke-width:4;stroke-miterlimit:10;} .st10{display:inline;fill:none;stroke:#F17430;stroke-width:8;stroke-miterlimit:10;} .st11{display:inline;fill:none;stroke:#F17430;stroke-width:3;stroke-miterlimit:10;}</style><g id="Feature__x23_6_-_Calendar_Icon" class="st0"><path class="st1" d="M102.9 134.8h-84.5c-6.9 0-12.6-5.6-12.6-12.6v-95.6c0-6.9 5.6-12.6 12.6-12.6h84.6c6.9 0 12.6 5.6 12.6 12.6v95.6c-.1 7-5.7 12.6-12.7 12.6z"/><path class="st2" d="M98.5 125.5h-75.7c-4.8 0-8.8-3.9-8.8-8.8v-51.5c0-4.8 3.9-8.8 8.8-8.8h75.8c4.8 0 8.8 3.9 8.8 8.8v51.5c-.1 4.9-4 8.8-8.9 8.8z"/><path class="st3" d="M85 56.5v69M61 56.5v69M37 56.5v69M14 103.5h96M14 80.5h96"/><path class="st4" d="M101.7 47.8h-83.4c-2.8 0-5-2.2-5-5v-12.3c0-2.8 2.2-5 5-5h83.3c2.8 0 5 2.2 5 5v12.4c.1 2.7-2.2 4.9-4.9 4.9z"/><g class="st5"><path class="st6" d="M83.4 38c-3 0-5.5-2.5-5.5-5.6l.2-25c0-3 2.5-5.5 5.5-5.5h3c3 0 5.5 2.5 5.5 5.6l-.2 25c0 3-2.5 5.5-5.5 5.5h-3z"/><path class="st7" d="M83.6 4h3c1.9 0 3.5 1.6 3.5 3.5l-.2 25c0 1.9-1.6 3.5-3.5 3.5h-2.9c-1.9 0-3.5-1.6-3.5-3.5l.2-25c-.1-1.9 1.5-3.5 3.4-3.5m0-4c-4.1 0-7.5 3.4-7.5 7.5l-.2 25c0 2 .8 3.9 2.2 5.3 1.4 1.4 3.3 2.2 5.3 2.2h2.9c4.2 0 7.5-3.4 7.6-7.5l.2-25c0-2-.8-3.9-2.2-5.3-1.4-1.4-3.3-2.2-5.3-2.2h-3z"/></g><g class="st5"><path class="st6" d="M59.4 38c-3 0-5.5-2.5-5.5-5.6l.2-25c0-3 2.5-5.5 5.5-5.5h3c3 0 5.5 2.5 5.5 5.6l-.2 25c0 3-2.5 5.5-5.5 5.5h-3z"/><path class="st7" d="M59.6 4h3c1.9 0 3.5 1.6 3.5 3.5l-.2 25c0 1.9-1.6 3.5-3.5 3.5h-2.9c-1.9 0-3.5-1.6-3.5-3.5l.2-25c-.1-1.9 1.5-3.5 3.4-3.5m0-4c-4.1 0-7.5 3.4-7.5 7.5l-.2 25c0 2 .8 3.9 2.2 5.3 1.4 1.4 3.3 2.2 5.3 2.2h2.9c4.2 0 7.5-3.4 7.6-7.5l.2-25c0-2-.8-3.9-2.2-5.3-1.4-1.4-3.3-2.2-5.3-2.2h-3z"/></g><g class="st5"><path class="st6" d="M35.4 38c-3 0-5.5-2.5-5.5-5.6l.2-25c0-3 2.5-5.5 5.5-5.5h3c3 0 5.5 2.5 5.5 5.6l-.2 25c0 3-2.5 5.5-5.5 5.5h-3z"/><path class="st7" d="M35.6 4h3c1.9 0 3.5 1.6 3.5 3.5l-.2 25c0 1.9-1.6 3.5-3.5 3.5h-2.9c-1.9 0-3.5-1.6-3.5-3.5l.2-25c-.1-1.9 1.5-3.5 3.4-3.5m0-4c-4.1 0-7.5 3.4-7.5 7.5l-.2 25c0 2 .8 3.9 2.2 5.3 1.4 1.4 3.3 2.2 5.3 2.2h2.9c4.2 0 7.5-3.4 7.6-7.5l.2-25c0-2-.8-3.9-2.2-5.3-1.4-1.4-3.3-2.2-5.3-2.2h-3z"/></g></g><g id="Feature__x23_5_-_Pen_Icon" class="st0"><path class="st8" d="M55.8 118.2s0 .2-.1.7c-.1.4-.2 1.1-.5 1.9-.3.8-.7 1.7-1.3 2.8-.6 1-1.5 2.2-2.7 3.2-1.2 1.1-2.8 2.1-4.9 2.6-2 .6-4.4.6-6.6 0-2.2-.5-4.2-1.6-5.9-2.8 0 0 .3.2.1.1h-.1l-.1-.1-.3-.2-.4-.4-.3-.2-.2-.1c-.1 0-.2-.1-.3-.2l-.7-.3-.8-.3c-1.1-.4-2.2-.6-3.4-.7-1.2-.1-2.4-.1-3.7.1-1.3.2-2.6.5-3.8.8-1.3.3-2.5.8-3.7 1.2-2.3.8-4.4 1.7-5.8 2.3-1.5.6-2.4 1-2.4 1s.1-.2.2-.7c.2-.4.4-1 .8-1.8.7-1.5 2-3.5 3.9-5.6 2-2.1 4.7-4.3 8.4-5.7 1.8-.7 3.9-1.2 6.2-1.3 2.2-.1 4.6.3 6.8 1.1.5.2 1.1.4 1.6.7.5.2 1 .5 1.6.8l.8.5.4.3.3.2 1.2.9.7.6.7.6 1.4.9c.9.5 1.7.8 2.7.9.9.1 2 .1 3-.2 1-.2 2-.6 2.9-1 .9-.4 1.7-.9 2.4-1.2.7-.4 1.2-.7 1.6-1 .1-.3.3-.4.3-.4z"/><path class="st6" d="M57.8 117.9c-1.7 1.4-3.2.7-3.2-1.5l-.4-17c0-2.2.7-5.6 1.6-7.6l41.7-89.4c.9-2 3.3-2.9 5.3-1.9l12.8 6c2 .9 2.9 3.3 1.9 5.3l-41.8 89.6c-.9 2-3.1 4.7-4.8 6.1l-13.1 10.4z"/><path class="st9" d="M89.2 19.7l21.7 10.2M91.9 12.8l20.9 9.8M56.7 88.7l20.9 9.8"/></g><g id="Feature__x23_4_-_Points_Icon" class="st0"><path class="st10" d="M75.3 75.6h-29.6c-7.1 0-12.9-5.8-12.9-12.9v-39.3c0-7.1 5.8-12.9 12.9-12.9h29.6c7.1 0 12.9 5.8 12.9 12.9v39.4c-.1 7-5.8 12.8-12.9 12.8z"/><g class="st5"><path class="st6" d="M26.4 125.4c-5.9 0-10.9-4.3-11.7-10.1l-8-53.5c-.5-3.4.5-6.9 2.7-9.5 2.3-2.6 5.5-4.1 9-4.1h85c3.5 0 6.7 1.5 9 4.1 2.3 2.6 3.3 6.1 2.8 9.5l-7.8 53.5c-.8 5.8-5.9 10.2-11.8 10.2h-69.2z"/><path class="st7" d="M103.4 51.1c5.4 0 9.6 4.8 8.8 10.2l-7.8 53.5c-.6 4.4-4.4 7.6-8.8 7.6h-69.2c-4.4 0-8.1-3.2-8.8-7.6l-8-53.5c-.8-5.4 3.4-10.2 8.8-10.2h85m0-6h-85c-4.3 0-8.4 1.9-11.3 5.2-2.9 3.2-4.1 7.6-3.5 11.9l8 53.5c1.1 7.3 7.3 12.7 14.7 12.7h69.2c7.3 0 13.7-5.5 14.7-12.7l7.8-53.5c.6-4.3-.6-8.6-3.5-11.9-2.7-3.3-6.8-5.2-11.1-5.2z"/></g><path class="st2" d="M91.9 116.5h-62.7c-4 0-7.2-3.2-7.2-7.2l-5.3-44.4c0-4 3.2-7.2 7.2-7.2h73.5c4 0 7.2 3.2 7.2 7.2l-5.5 44.4c0 4-3.2 7.2-7.2 7.2z"/><path class="st11" d="M80.5 54.5v62M60.5 55.5v61M100.5 54.5v62M41.5 56.5v60M22.5 56.5v60M18 98h83M17 79h88"/></g><g id="Feature__x23_3_-_E-Wallet_Icon" class="st0"><path class="st1" d="M83.7 135.7h-49.8c-7.7 0-13.9-6.2-13.9-13.9v-107.9c0-7.7 6.2-13.9 13.9-13.9h49.8c7.7 0 13.9 6.2 13.9 13.9v107.8c.1 7.8-6.2 14-13.9 14z"/><path class="st2" d="M78.7 119.6h-39.7c-6.2 0-11.2-5-11.2-11.2v-87.5c0-6.2 5-11.2 11.2-11.2h39.7c6.2 0 11.2 5 11.2 11.2v87.4c0 6.2-5 11.3-11.2 11.3z"/><circle class="st4" cx="58.8" cy="127.2" r="5.1"/><g class="st5"><path class="st7" d="M41.7 85.6l-.1-5.1c-4.5-.1-8.6-1.1-12.2-3.2l1.7-5.7c3.5 1.9 7 2.9 10.5 3v-11.4c-2.1-.6-3.5-1.1-4.3-1.4-5.2-1.8-7.8-5.3-7.8-10.3 0-3.3 1.1-5.8 3.3-7.7 2.2-1.9 5.1-3 8.8-3.2v-4.1h2.6v4c4.2.1 7.9 1.1 11.1 2.9l-2.2 5.2c-3.2-1.4-6.1-2.2-8.9-2.3v10.4c.1.1.4.1.6.2l.9.3c.3.1.6.2.7.2 3.5 1.2 6.1 2.6 7.6 4.3 1.5 1.7 2.3 4.1 2.3 7.2 0 3.3-1.1 6-3.3 7.9-2.2 2-5.1 3.1-8.9 3.4v5.2h-2.4zm0-29.7v-9.4c-1.5.2-2.6.7-3.4 1.4s-1.2 1.9-1.3 3.3c0 2.2 1.1 3.6 3.2 4.2.2.1.7.3 1.5.5zm2.6 18.6c3.3-.5 4.9-2.4 4.9-5.5 0-2.3-1.4-3.8-4.1-4.8-.1 0-.2-.1-.4-.1-.3-.1-.4-.1-.4-.1v10.5zM73.3 85.6l-.1-5.1c-4.5-.1-8.6-1.1-12.2-3.2l1.7-5.7c3.5 1.9 7 2.9 10.5 3v-11.4c-2.1-.6-3.5-1.1-4.3-1.4-5.2-1.8-7.8-5.3-7.8-10.3 0-3.3 1.1-5.8 3.3-7.7 2.2-1.9 5.1-3 8.8-3.2v-4.1h2.6v4c4.2.1 7.9 1.1 11.1 2.9l-2.2 5.2c-3.2-1.4-6.1-2.2-8.9-2.3v10.4c.1.1.4.1.6.2l.9.3c.3.1.6.2.7.2 3.5 1.2 6.1 2.6 7.6 4.3 1.5 1.7 2.3 4.1 2.3 7.2 0 3.3-1.1 6-3.3 7.9-2.2 2-5.1 3.1-8.9 3.4v5.2h-2.4zm0-29.7v-9.4c-1.5.2-2.6.7-3.4 1.4-.8.8-1.2 1.9-1.3 3.3 0 2.2 1.1 3.6 3.2 4.2.2.1.7.3 1.5.5zm2.5 18.6c3.3-.5 4.9-2.4 4.9-5.5 0-2.3-1.4-3.8-4.1-4.8-.1 0-.2-.1-.4-.1-.2-.1-.3-.1-.4-.1v10.5z"/></g></g><g id="Feature__x23_2__-_No__x24__x24__Icon"><path class="st6" d="M26.8 116.2l-.1-10c-8.9-.1-16.9-2.2-24.1-6.4l3.4-11.3c6.9 3.8 13.8 5.8 20.8 6v-22.6c-4.2-1.2-7-2.1-8.5-2.7-10.2-3.7-15.4-10.4-15.4-20.3 0-6.4 2.2-11.5 6.5-15.2 4.3-3.7 10.1-5.8 17.4-6.3v-8h5.1v7.9c8.4.2 15.6 2.1 21.9 5.7l-4.3 10.3c-6.3-2.8-12.1-4.3-17.6-4.5v20.5c.3.1.7.2 1.3.4.6.2 1.2.4 1.9.6.7.2 1.1.3 1.4.4 7 2.3 12 5.2 15 8.6 3 3.4 4.5 8.2 4.5 14.3 0 6.6-2.1 11.8-6.4 15.7s-10.1 6.1-17.6 6.8v10.2h-5.2zm0-58.7v-18.6c-3 .4-5.2 1.3-6.7 2.8-1.5 1.5-2.4 3.7-2.5 6.5 0 4.2 2.1 7 6.3 8.3.5.3 1.4.6 2.9 1zm5.1 36.7c6.4-1 9.7-4.7 9.7-10.9 0-4.5-2.7-7.6-8.1-9.4-.1-.1-.4-.2-.8-.3-.4-.1-.7-.2-.8-.2v20.8zM89.1 116.2l-.1-10c-8.9-.1-16.9-2.2-24.1-6.4l3.4-11.2c6.9 3.8 13.8 5.8 20.8 6v-22.7c-4.2-1.2-7-2.1-8.5-2.7-10.3-3.6-15.4-10.4-15.4-20.3 0-6.4 2.2-11.5 6.5-15.2 4.3-3.7 10.1-5.8 17.4-6.3v-8h5.1v7.9c8.4.2 15.6 2.1 21.9 5.7l-4.3 10.3c-6.3-2.8-12.1-4.3-17.6-4.5v20.5c.3.1.7.2 1.3.4.6.2 1.2.4 1.9.6.7.2 1.1.3 1.4.4 7 2.3 12 5.2 15 8.6 3 3.4 4.5 8.2 4.5 14.3 0 6.6-2.1 11.8-6.4 15.7s-10.1 6.1-17.6 6.8v10.2h-5.2zm0-58.7v-18.6c-3 .4-5.2 1.3-6.7 2.8-1.5 1.5-2.4 3.7-2.5 6.5 0 4.2 2.1 7 6.3 8.3.5.3 1.5.6 2.9 1zm5.1 36.7c6.4-1 9.7-4.7 9.7-10.9 0-4.5-2.7-7.6-8.1-9.4-.1-.1-.4-.2-.8-.3-.4-.1-.7-.2-.8-.2v20.8z"/><path class="st8" d="M8.7 122.2c-1.7 0-3.3-.7-4.4-1.9-2.3-2.4-2.1-6.2.3-8.5l102.5-95.4c1.1-1 2.6-1.6 4.1-1.6 1.7 0 3.3.7 4.4 1.9 1.1 1.2 1.7 2.7 1.6 4.3s-.7 3.1-1.9 4.2l-102.5 95.3c-1.1 1.1-2.5 1.7-4.1 1.7z"/><path class="st7" d="M111.3 17.2c.9 0 1.9.4 2.6 1.1 1.3 1.4 1.2 3.6-.2 4.9l-102.6 95.5c-.7.6-1.5.9-2.4.9-.9 0-1.9-.4-2.6-1.1-1.3-1.4-1.2-3.6.2-4.9l102.5-95.4c.8-.7 1.6-1 2.5-1m0-5c-2.2 0-4.2.8-5.8 2.3l-102.6 95.4c-3.4 3.2-3.6 8.6-.4 12 1.6 1.7 3.9 2.7 6.2 2.7 2.2 0 4.2-.8 5.8-2.3l102.6-95.3c3.4-3.2 3.6-8.6.4-12-1.6-1.8-3.9-2.8-6.2-2.8z"/><path class="st8" d="M107.7 125.7c-1.7 0-3.3-.7-4.4-1.9l-95.4-102.5c-1.1-1.2-1.7-2.7-1.6-4.3s.7-3.1 1.9-4.2c1.1-1 2.6-1.6 4.1-1.6 1.7 0 3.3.7 4.4 1.9l95.4 102.5c2.3 2.4 2.1 6.2-.3 8.5-1.1 1-2.6 1.6-4.1 1.6z"/><path class="st7" d="M12.3 13.7c.9 0 1.9.4 2.6 1.1l95.4 102.5c1.3 1.4 1.2 3.6-.2 4.9-.7.6-1.5.9-2.4.9-.9 0-1.9-.4-2.6-1.1l-95.4-102.4c-1.3-1.4-1.2-3.6.2-4.9.7-.7 1.5-1 2.4-1m0-5c-2.2 0-4.2.8-5.8 2.3-3.4 3.2-3.6 8.6-.4 12l95.4 102.5c1.6 1.7 3.9 2.7 6.2 2.7 2.2 0 4.2-.8 5.8-2.3 3.4-3.2 3.6-8.6.4-12l-95.4-102.5c-1.6-1.7-3.9-2.7-6.2-2.7z"/></g><g id="Feature__x23_1_-_Linked_Account_Icon" class="st0"><path class="st1" d="M57.2 61.4l-2.8 1.3c-10.3 5-22.6.6-27.6-9.6l-10.2-21.5c-5-10.3-.6-22.6 9.6-27.6l2.8-1.3c10.3-5 22.6-.6 27.6 9.6l10.3 21.4c4.9 10.4.6 22.7-9.7 27.7z"/><path class="st4" d="M52.3 52.9l-1.4.7c-5.1 2.5-11.3.3-13.8-4.8l-10.8-22.5c-2.4-5.2-.3-11.3 4.9-13.8l1.4-.7c5.1-2.5 11.3-.3 13.8 4.8l10.8 22.4c2.4 5.2.3 11.4-4.9 13.9z"/><path class="st1" d="M91.4 132.3l-2.8 1.3c-10.3 5-22.6.6-27.6-9.6l-10.3-21.4c-5-10.3-.6-22.6 9.6-27.6l2.8-1.3c10.3-5 22.6-.6 27.6 9.6l10.3 21.4c5 10.3.7 22.7-9.6 27.6z"/><path class="st4" d="M86.5 123.9l-1.4.7c-5.1 2.5-11.3.3-13.8-4.8l-10.8-22.5c-2.5-5.1-.3-11.3 4.8-13.8l1.4-.7c5.1-2.5 11.3-.3 13.8 4.8l10.8 22.4c2.5 5.2.4 11.4-4.8 13.9z"/><g class="st5"><path class="st8" d="M69.3 97.8c-2.7 0-5.2-1.6-6.4-4l-22.4-46.3c-1.7-3.5-.2-7.8 3.3-9.5l.7-.3c1-.5 2-.7 3.1-.7 2.7 0 5.2 1.6 6.4 4l22.3 46.3c1.7 3.5.2 7.8-3.3 9.5l-.7.3c-.9.5-2 .7-3 .7z"/><path class="st7" d="M47.6 38.9c1.9 0 3.7 1.1 4.6 2.9l22.3 46.3c1.2 2.5.2 5.6-2.4 6.8l-.7.3c-.7.3-1.5.5-2.2.5-1.9 0-3.7-1.1-4.6-2.9l-22.3-46.2c-1.2-2.5-.2-5.6 2.4-6.8l.7-.3c.7-.4 1.5-.6 2.2-.6m0-4c-1.4 0-2.7.3-4 .9l-.6.3c-4.5 2.2-6.4 7.6-4.3 12.2l22.3 46.3c1.5 3.1 4.7 5.2 8.2 5.2 1.4 0 2.7-.3 4-.9l.7-.3c2.2-1.1 3.8-2.9 4.7-5.2s.7-4.8-.4-7l-22.4-46.3c-1.5-3.2-4.7-5.2-8.2-5.2z"/></g></g></svg>