<?xml version="1.0" encoding="utf-8"?>
<!-- Generator: Adobe Illustrator 19.1.0, SVG Export Plug-In . SVG Version: 6.00 Build 0)  -->
<svg version="1.1" id="Layer_1" xmlns="http://www.w3.org/2000/svg" xmlns:xlink="http://www.w3.org/1999/xlink" x="0px" y="0px"
	 width="200px" height="200px" viewBox="0 0 200 200" style="enable-background:new 0 0 200 200;" xml:space="preserve">
<style type="text/css">
	.st0{display:none;fill:#C1272D;}
	.st1{fill:#FFFFFF;}
</style>
<rect x="-0.1" y="0" class="st0" width="199.7" height="200"/>
<path class="st1" d="M99.8,0C44.6,0-0.2,44.8-0.2,100c0,55.2,44.8,100,100,100c55.2,0,100-44.8,100-100C199.7,44.8,155,0,99.8,0z
	 M130.6,53.8c-1.9-1-4.2-1.9-6.8-2.6c-2.6-0.7-5.1-1.1-7.2-1.1c-9,0-13.5,6-13.5,18.1V82h25v20h-25v69H77v-69H64V82h13V69.2
	c0-12.6,3.1-22.6,9.2-29.9c6.1-7.3,14.3-11,24.6-11c8.2,0,16.5,2,24.9,6L130.6,53.8z"/>
<g>
</g>
<g>
</g>
<g>
</g>
<g>
</g>
<g>
</g>
<g>
</g>
<g>
</g>
<g>
</g>
<g>
</g>
<g>
</g>
<g>
</g>
<g>
</g>
<g>
</g>
<g>
</g>
<g>
</g>
</svg>
